<?xml version="1.0" standalone="no"?>
<!DOCTYPE svg PUBLIC "-//W3C//DTD SVG 20010904//EN"
 "http://www.w3.org/TR/2001/REC-SVG-20010904/DTD/svg10.dtd">
<svg version="1.0" xmlns="http://www.w3.org/2000/svg"
 width="512.000000pt" height="512.000000pt" viewBox="0 0 512.000000 512.000000"
 preserveAspectRatio="xMidYMid meet">
<metadata>
Created by potrace 1.11, written by Peter Selinger 2001-2013
</metadata>
<g transform="translate(0.000000,512.000000) scale(0.100000,-0.100000)"
fill="#000000" stroke="none">
<path d="M0 2560 l0 -2560 2560 0 2560 0 0 2560 0 2560 -2560 0 -2560 0 0
-2560z m2662 1846 c112 -22 1450 -346 1469 -357 70 -37 77 -142 13 -184 -12
-8 -184 -53 -381 -101 -197 -47 -361 -88 -365 -90 -3 -2 9 -41 27 -87 70 -171
83 -392 35 -572 -82 -311 -342 -571 -655 -657 -116 -32 -364 -32 -480 0 -252
69 -474 253 -590 487 -70 142 -88 222 -89 400 -1 163 10 225 65 356 15 38 25
70 21 73 -7 4 -467 116 -477 116 -3 0 -5 -87 -5 -193 l0 -194 26 -24 c72 -67
77 -161 11 -235 l-31 -36 57 -232 c32 -127 57 -240 57 -251 0 -11 -7 -31 -16
-43 -15 -21 -21 -22 -180 -22 -91 0 -174 4 -184 10 -37 20 -33 59 28 303 l59
236 -25 23 c-70 65 -68 191 4 247 l24 19 -2 218 c-3 210 -4 219 -23 222 -69
13 -115 60 -115 120 0 31 29 75 60 92 18 10 1375 339 1475 358 73 14 105 14
187 -2z m-452 -2671 c190 -190 349 -345 355 -345 5 0 166 156 356 346 l346
345 84 -11 c318 -43 598 -246 739 -535 69 -140 92 -238 97 -410 5 -125 3 -146
-16 -196 -30 -78 -71 -133 -133 -173 -105 -69 -31 -66 -1473 -66 -1442 0
-1368 -3 -1473 66 -62 40 -103 95 -133 173 -19 50 -21 71 -16 196 5 172 28
270 97 410 115 237 319 414 568 494 85 28 171 46 237 50 14 1 127 -106 365
-344z"/>
</g>
</svg>
