<?xml version="1.0" standalone="no"?>
<!DOCTYPE svg PUBLIC "-//W3C//DTD SVG 20010904//EN"
 "http://www.w3.org/TR/2001/REC-SVG-20010904/DTD/svg10.dtd">
<svg version="1.0" xmlns="http://www.w3.org/2000/svg"
 width="1024.000000pt" height="1024.000000pt" viewBox="0 0 1024.000000 1024.000000"
 preserveAspectRatio="xMidYMid meet">
<metadata>
Created by potrace 1.11, written by Peter Selinger 2001-2013
</metadata>
<g transform="translate(0.000000,1024.000000) scale(0.100000,-0.100000)"
fill="#000000" stroke="none">
<path d="M4948 10235 c-3 -3 -23 -6 -118 -20 -25 -4 -92 -18 -150 -31 -58 -14
-134 -31 -170 -39 -36 -8 -72 -18 -80 -21 -8 -3 -26 -8 -40 -10 -14 -3 -61
-14 -105 -25 -44 -10 -89 -21 -100 -23 -11 -2 -76 -18 -145 -36 -119 -30 -138
-34 -185 -44 -11 -2 -40 -9 -65 -16 -49 -13 -46 -13 -105 -25 -55 -12 -55 -12
-57 -15 -4 -2 -27 -8 -63 -15 -16 -3 -41 -8 -55 -12 -39 -10 -43 -11 -70 -16
-14 -3 -36 -10 -50 -15 -14 -5 -28 -10 -33 -10 -4 0 -20 -3 -35 -6 -15 -4 -37
-9 -49 -11 -39 -8 -55 -12 -138 -34 -44 -11 -91 -22 -105 -25 -47 -9 -72 -15
-90 -21 -10 -3 -27 -8 -37 -10 -18 -3 -88 -20 -128 -31 -11 -3 -32 -7 -48 -9
-15 -2 -32 -7 -38 -10 -5 -4 -20 -8 -32 -10 -12 -2 -51 -10 -87 -19 -36 -9
-76 -19 -89 -22 -13 -3 -51 -12 -85 -20 -34 -8 -68 -16 -77 -19 -9 -2 -33 -8
-53 -13 -20 -6 -36 -8 -36 -5 0 3 -7 0 -15 -7 -8 -7 -15 -10 -15 -7 0 3 -16 1
-36 -5 -20 -5 -45 -12 -55 -14 -11 -2 -27 -6 -38 -8 -19 -5 -190 -46 -299 -72
-35 -9 -68 -17 -75 -18 -7 -2 -23 -6 -37 -9 -14 -4 -119 -29 -235 -57 -115
-27 -237 -57 -270 -65 -33 -9 -70 -18 -83 -21 -42 -9 -176 -43 -203 -51 -96
-30 -185 -120 -215 -219 -27 -85 0 -221 53 -271 13 -12 23 -26 23 -30 0 -11
97 -73 114 -73 8 0 17 -4 20 -9 3 -5 23 -12 43 -16 21 -5 43 -9 48 -11 6 -1
23 -5 39 -8 26 -5 61 -26 43 -26 -4 0 -3 -9 3 -19 7 -13 7 -22 0 -26 -6 -4 -7
-13 -2 -21 5 -9 6 -36 2 -60 -4 -25 -3 -47 2 -50 4 -3 4 -13 -1 -23 -5 -9 -6
-23 -2 -30 5 -7 5 -30 1 -51 -4 -21 -4 -44 1 -51 4 -7 4 -20 -1 -30 -5 -9 -7
-19 -3 -22 7 -8 10 -97 3 -97 -7 0 -4 -89 3 -97 4 -3 2 -13 -3 -23 -5 -10 -7
-20 -3 -23 7 -8 10 -97 3 -97 -7 0 -4 -89 3 -97 4 -3 2 -13 -3 -23 -5 -10 -7
-20 -3 -23 7 -8 10 -97 3 -97 -7 0 -4 -89 3 -96 3 -3 1 -19 -3 -35 -5 -16 -5
-29 0 -29 17 0 -3 -37 -28 -52 -37 -22 -132 -119 -132 -135 0 -7 -3 -13 -8
-13 -19 0 -62 -126 -67 -200 -2 -30 -5 -57 -6 -60 -1 -3 0 -9 1 -15 1 -5 4
-19 6 -30 12 -64 18 -83 32 -115 9 -19 18 -37 21 -40 4 -3 13 -18 21 -34 8
-16 43 -54 77 -86 43 -39 61 -63 59 -76 -2 -10 -12 -48 -21 -84 -9 -36 -18
-72 -20 -80 -2 -8 -11 -44 -20 -80 -8 -36 -17 -72 -19 -80 -2 -8 -14 -51 -25
-95 -12 -44 -24 -89 -26 -100 -5 -26 -8 -39 -40 -165 -15 -58 -29 -114 -31
-125 -2 -11 -28 -116 -58 -233 -61 -242 -64 -292 -24 -369 35 -67 83 -93 168
-93 36 0 72 -1 80 -1 8 0 44 -1 80 0 36 0 72 0 80 0 8 -1 44 -1 80 0 36 0 72
0 80 0 8 -1 44 -1 80 0 36 0 72 0 80 0 8 0 72 0 142 1 133 2 163 10 200 53 57
65 66 147 32 286 -14 58 -27 114 -30 124 -2 9 -6 25 -8 35 -2 9 -14 55 -26
102 -12 47 -24 93 -26 103 -2 9 -6 26 -9 37 -3 11 -7 29 -10 40 -3 11 -7 28
-9 38 -2 9 -9 37 -16 62 -7 25 -13 52 -15 60 -2 8 -8 35 -15 60 -7 25 -14 53
-16 62 -2 10 -6 27 -9 38 -3 11 -7 28 -9 38 -2 9 -12 46 -21 82 -23 87 -26
102 -30 125 -2 11 -4 20 -5 20 -1 0 -3 7 -5 15 -2 8 -6 24 -9 35 -27 101 -28
109 -9 122 28 20 113 106 113 114 0 4 6 14 13 21 18 20 49 78 41 78 -3 0 -2 6
3 13 28 35 39 193 19 262 -8 25 -12 45 -10 45 17 0 -92 162 -126 186 -8 7 -28
24 -45 38 -16 14 -34 26 -39 26 -5 0 -7 3 -3 6 3 3 2 17 -3 30 -5 13 -6 24 -2
24 4 0 7 11 7 25 0 14 -2 25 -5 25 -7 0 -4 66 5 79 3 6 1 11 -5 11 -8 0 -7 6
1 21 7 15 8 24 0 32 -6 6 -7 16 -1 28 7 11 7 20 0 24 -7 4 -7 13 0 26 7 12 7
19 1 19 -6 0 -6 11 -1 30 5 18 5 32 -1 35 -5 4 -5 14 1 25 7 13 7 21 0 25 -7
4 -7 13 0 26 6 10 7 19 2 19 -5 0 -6 23 -2 50 4 28 3 50 -2 50 -5 0 -4 9 2 19
7 13 7 22 0 26 -7 4 -7 13 0 24 6 12 5 22 -1 28 -8 8 -7 17 0 32 8 15 9 21 1
21 -6 0 -8 5 -5 11 10 15 12 79 3 79 -3 0 -3 14 2 30 5 17 5 30 2 30 -9 0 -7
64 3 79 3 6 1 11 -5 11 -7 0 -8 6 -1 18 8 15 11 25 11 36 0 2 39 -7 88 -19 48
-13 101 -26 117 -29 17 -2 30 -5 30 -6 0 -1 11 -3 23 -6 13 -2 78 -18 145 -35
67 -17 130 -32 140 -34 10 -3 26 -6 35 -9 9 -3 32 -8 51 -11 19 -3 37 -8 41
-10 3 -2 17 -6 31 -9 41 -9 62 -13 195 -45 125 -30 169 -41 179 -42 16 -3 228
-59 230 -61 2 -2 -10 -30 -26 -63 -30 -65 -89 -204 -93 -220 -2 -5 -6 -17 -9
-25 -7 -17 -57 -174 -63 -199 -23 -98 -45 -199 -50 -229 -3 -20 -7 -48 -9 -62
-9 -53 -16 -128 -20 -202 -1 -42 -6 -81 -9 -87 -4 -6 -4 -11 1 -11 9 0 9 -72
0 -87 -4 -6 -4 -13 0 -16 3 -4 7 -44 9 -90 1 -46 5 -102 9 -123 3 -21 8 -59
10 -84 3 -25 6 -54 9 -65 2 -11 14 -64 25 -119 23 -111 73 -283 92 -318 7 -13
12 -25 12 -28 -2 -23 107 -262 177 -388 61 -109 207 -311 300 -416 42 -46 198
-203 231 -231 117 -100 318 -245 338 -245 6 0 11 -3 11 -8 0 -7 10 -13 66 -42
16 -8 31 -17 34 -20 19 -22 406 -190 437 -190 7 0 21 -4 31 -10 17 -10 195
-58 242 -66 14 -2 36 -6 50 -8 165 -32 261 -40 470 -40 173 0 280 5 360 18 14
2 45 7 70 10 55 8 85 14 85 16 0 1 11 3 24 6 59 11 225 56 292 80 41 14 80 26
87 26 6 1 12 5 12 10 0 4 8 8 18 8 10 0 23 5 30 12 7 7 12 9 12 5 0 -4 21 4
48 17 26 13 69 34 97 46 27 13 66 33 87 46 21 13 38 21 38 17 0 -5 4 -3 8 3 4
6 31 24 60 39 28 15 52 30 52 34 0 3 13 12 28 18 15 7 36 19 47 28 224 169
246 188 364 306 108 107 180 192 299 354 31 42 92 144 92 153 0 7 5 12 10 12
6 0 10 7 10 15 0 8 5 15 12 15 6 0 9 3 5 6 -3 3 4 23 17 43 19 30 86 164 91
181 1 3 8 21 16 40 9 19 24 58 33 85 10 28 22 59 27 70 10 23 58 187 66 225 3
14 6 30 7 35 8 33 26 125 31 155 12 75 14 87 21 155 4 39 8 91 8 117 1 27 4
48 8 48 4 0 4 10 -1 23 -5 14 -5 30 0 40 7 11 6 17 0 17 -7 0 -7 8 -1 25 5 14
6 25 2 25 -4 0 -7 35 -8 78 -1 106 -13 210 -39 357 -22 119 -99 374 -145 478
-11 26 -21 49 -20 52 0 3 -7 20 -17 38 -9 17 -25 49 -35 69 l-17 38 42 11 c23
6 49 13 57 14 8 2 47 11 85 20 69 17 88 21 123 29 9 2 66 16 126 31 59 15 116
28 125 30 9 2 57 13 106 25 50 12 99 24 110 27 38 8 50 11 50 13 0 1 11 4 24
6 14 2 61 14 105 25 45 11 92 22 106 24 14 2 37 8 53 14 15 6 27 8 27 5 0 -4
6 -1 13 5 8 6 16 9 19 6 3 -3 24 1 46 9 23 9 42 13 42 11 0 -2 21 2 48 10 26
8 58 16 72 18 14 3 43 10 65 15 22 6 51 13 65 16 14 3 61 14 106 25 44 11 91
22 105 25 13 3 39 9 57 15 17 5 32 7 32 4 0 -3 7 1 17 8 9 8 18 13 20 11 7 -6
123 21 123 29 0 5 3 8 8 7 14 -3 62 14 62 23 0 5 6 9 13 9 12 0 65 51 96 92
47 63 62 209 27 276 -9 17 -14 32 -11 32 8 0 -13 26 -68 81 -27 27 -55 49 -63
49 -8 0 -14 5 -14 12 0 6 -3 8 -7 5 -3 -4 -11 -3 -17 2 -11 9 -145 47 -201 57
-16 3 -43 9 -60 14 -74 22 -320 80 -355 84 -9 1 -20 5 -25 8 -6 3 -28 9 -50
13 -22 5 -44 9 -50 11 -5 2 -21 5 -34 8 -13 3 -60 15 -105 27 -45 11 -92 23
-106 25 -14 3 -79 19 -145 35 -66 17 -140 35 -165 40 -25 6 -61 14 -80 19 -37
10 -148 36 -190 45 -8 2 -15 4 -15 5 0 2 -12 4 -55 13 -14 3 -44 10 -67 16
-87 22 -119 30 -143 35 -24 5 -42 9 -90 21 -11 3 -28 7 -37 9 -10 2 -38 9 -63
16 -98 24 -186 45 -232 55 -41 8 -272 65 -303 74 -50 16 -189 46 -202 44 -7 0
-13 3 -13 7 0 5 -8 8 -17 8 -10 0 -65 12 -123 27 -58 15 -114 29 -125 31 -11
2 -78 18 -148 35 -71 17 -136 32 -145 34 -10 2 -73 18 -142 35 -69 17 -134 33
-145 34 -11 2 -27 6 -35 9 -8 4 -26 9 -40 12 -14 2 -43 9 -66 13 -22 5 -45 12
-51 15 -5 4 -28 9 -49 12 -42 6 -79 13 -79 15 0 1 -15 3 -34 6 -19 2 -46 7
-60 10 -28 6 -397 15 -403 9z"/>
<path d="M3107 3823 c-2 -2 -30 -5 -63 -8 -57 -5 -92 -10 -144 -19 -14 -3 -42
-7 -62 -10 -21 -3 -57 -11 -80 -16 -24 -6 -54 -13 -68 -15 -14 -3 -49 -12 -77
-21 -29 -9 -58 -17 -65 -18 -7 -2 -20 -6 -28 -9 -8 -3 -51 -17 -95 -32 -112
-38 -294 -121 -395 -178 -47 -27 -98 -56 -115 -65 -16 -9 -31 -20 -33 -24 -2
-5 -10 -8 -17 -8 -7 0 -15 -3 -17 -7 -1 -5 -30 -26 -63 -47 -33 -22 -64 -45
-70 -51 -5 -6 -26 -22 -45 -35 -19 -13 -40 -29 -46 -35 -7 -5 -42 -37 -80 -70
-118 -104 -216 -207 -318 -335 -37 -47 -79 -98 -92 -115 -13 -16 -24 -36 -24
-42 0 -7 -4 -13 -10 -13 -5 0 -16 -16 -25 -35 -9 -19 -23 -39 -31 -46 -8 -6
-14 -16 -14 -21 0 -6 -8 -22 -19 -36 -31 -46 -159 -299 -166 -332 -1 -3 -8
-21 -17 -40 -13 -31 -59 -163 -64 -182 -1 -5 -3 -10 -4 -13 -1 -3 -3 -8 -4
-12 -1 -5 -5 -14 -10 -21 -4 -7 -5 -16 -2 -19 3 -3 1 -14 -5 -25 -6 -11 -13
-32 -15 -46 -3 -15 -10 -45 -16 -67 -12 -46 -16 -68 -23 -110 -2 -16 -6 -39
-9 -51 -4 -20 -12 -75 -23 -172 -3 -26 -7 -164 -9 -307 -3 -230 -1 -270 17
-345 21 -91 26 -114 29 -117 2 -2 3 -6 4 -10 0 -5 14 -37 30 -73 48 -108 133
-230 210 -299 22 -20 44 -40 50 -46 20 -18 91 -70 111 -81 11 -6 36 -20 55
-31 45 -25 197 -84 230 -89 14 -1 48 -8 75 -13 33 -7 1283 -10 3665 -10 3748
0 3620 -1 3780 35 34 7 148 53 186 75 17 9 42 23 55 31 88 49 223 180 297 287
29 40 49 77 46 82 -3 5 -1 9 4 9 7 0 54 106 67 153 2 4 3 8 5 10 3 4 9 30 25
117 13 70 15 132 10 350 -3 146 -7 281 -10 300 -7 57 -14 103 -21 130 -3 14
-6 32 -6 40 0 8 -9 53 -20 100 -11 47 -21 98 -23 114 -1 16 -7 31 -12 35 -6 3
-10 13 -11 21 -1 18 -4 28 -27 105 -10 33 -21 67 -25 75 -5 8 -20 47 -36 85
-27 70 -114 250 -151 315 -50 88 -107 176 -117 182 -6 4 -7 8 -1 8 6 0 6 3 0
8 -6 4 -28 32 -50 62 -22 30 -44 60 -50 66 -5 7 -26 31 -45 55 -102 126 -307
328 -391 387 -13 9 -35 27 -49 39 -14 13 -33 26 -42 29 -10 3 -18 10 -18 15 0
5 -7 9 -15 9 -8 0 -15 4 -15 8 0 5 -18 18 -40 31 -22 12 -40 27 -40 33 0 6 -3
9 -6 6 -3 -3 -29 9 -57 28 -28 19 -57 34 -64 34 -7 0 -13 4 -13 8 0 4 -12 13
-27 20 -16 7 -44 21 -63 32 -130 73 -421 183 -585 220 -27 7 -59 14 -70 16
-84 20 -171 34 -182 30 -7 -3 -13 -2 -13 2 0 5 -17 9 -37 11 -21 1 -54 4 -73
7 -19 2 -64 6 -99 8 l-64 3 -954 -954 -953 -953 -952 952 -952 952 -53 1 c-29
1 -54 0 -56 -2z"/>
</g>
</svg>
